<svg xmlns="http://www.w3.org/2000/svg" viewBox="0 0 512 512"><rect width="512" height="512" rx="112" fill="#e9f2ea"/><g transform="translate(40 110) scale(2)"><path d="M168 84 C182 68 196 54 212 46 C204 72 204 100 212 126 C196 118 182 104 168 96 Z" fill="#b97d24"/><path d="M90 46 C98 25 111 12 125 7 C122 24 126 37 138 48 Z" fill="#b97d24"/><path d="M22 92 C22 58 62 40 110 40 C150 40 176 62 176 90 C176 122 148 142 104 142 C58 142 22 124 22 92 Z" fill="#e3a73f"/><path d="M30 102 C52 116 98 122 166 108 C156 128 132 140 102 140 C66 140 38 126 30 102 Z" fill="#fff6df"/><circle cx="62" cy="76" r="14" fill="#fffdf6"/><circle cx="64" cy="78" r="7.5" fill="#4a3313"/><circle cx="98" cy="74" r="14" fill="#fffdf6"/><circle cx="100" cy="76" r="7.5" fill="#4a3313"/><path d="M58 102 Q80 118 102 102" stroke="rgba(24,40,48,.62)" stroke-width="5" fill="none" stroke-linecap="round"/></g></svg>
